<?xml version="1.0" encoding="utf-8"?>
<!-- Generator: Adobe Illustrator 21.0.2, SVG Export Plug-In . SVG Version: 6.00 Build 0)  -->
<svg version="1.1" id="Layer_1" xmlns="http://www.w3.org/2000/svg" xmlns:xlink="http://www.w3.org/1999/xlink" x="0px" y="0px"
	 viewBox="0 0 48 48" style="enable-background:new 0 0 48 48;" xml:space="preserve">
<style type="text/css">
	.st0{fill:#FFFFFF;}
	.st1{fill:#7986CB;}
</style>
<title>logo</title>
<polygon class="st0" points="27,21 27,15 21,15 21,21 15,21 15,27 21,27 21,33 27,33 27,27 33,27 33,21 "/>
<path class="st1" d="M9,24c0-7.1,5-13.3,12-14.7V3.2C9.5,4.9,1.6,15.5,3.2,27c1.3,9.2,8.6,16.5,17.8,17.8v-6.1C14,37.3,9,31.1,9,24z
	"/>
<path class="st1" d="M27,3.2v6.1c8.1,1.6,13.4,9.6,11.7,17.7c-1.2,5.9-5.8,10.5-11.7,11.7v6.1C38.5,43.1,46.4,32.5,44.8,21
	C43.5,11.8,36.2,4.5,27,3.2L27,3.2z"/>
</svg>
